# xmcd CD database file
#
# Track frame offsets:
#	150
#	107256
#	178563
#
# Disc length: 2956 seconds
#
# Revision: 0
# Processed by: cddbd v1.5.2PL0 Copyright (c) Steve Scherf et al.
# Submitted via: CDex 1.70beta2
#
DISCID=170b8a03
DTITLE=The Celestral Communication Orchestra - HR57 II
DYEAR=2001
DGENRE=Jazz
TTITLE0=HR57 I
TTITLE1=HR57 II
TTITLE2=What Is Your Name?
EXTD=YEAR: 2001
EXTT0=
EXTT1=
EXTT2=
PLAYORDER=
